<svg width="100" height="80" viewBox="0 0 100 80" fill="none" xmlns="http://www.w3.org/2000/svg">
<path d="M59.9255 16.1994C59.6494 15.7211 59.8133 15.1095 60.2916 14.8333L83.6742 1.33334L97.0076 24.4274L73.6249 37.9273C73.1466 38.2035 72.535 38.0396 72.2589 37.5613L59.9255 16.1994Z" fill="white"/>
<path d="M35.8554 33.1754C35.5793 32.6971 35.7432 32.0856 36.2215 31.8094L59.6042 18.3094L70.2708 36.7846L46.8881 50.2846C46.4098 50.5608 45.7983 50.3969 45.5221 49.9186L35.8554 33.1754Z" fill="white"/>
<path d="M11.2854 49.2855L35.5341 35.2855L43.5341 49.1419L19.2854 63.1419L11.2854 49.2855Z" fill="white"/>
<path d="M5.9999 50.7974C5.63171 50.1597 5.85021 49.3443 6.48793 48.9761L7.64263 48.3094C8.28036 47.9412 9.09581 48.1597 9.464 48.7974L18.7973 64.9632C19.1655 65.601 18.947 66.4164 18.3093 66.7846L17.1546 67.4513C16.5169 67.8195 15.7014 67.601 15.3332 66.9632L5.9999 50.7974Z" fill="white"/>
<path d="M51.9999 49.3333L65.3332 41.3333V49.3333C65.3332 50.8061 64.1393 52 62.6666 52H54.6666C53.1938 52 51.9999 50.8061 51.9999 49.3333Z" fill="white"/>
<path d="M54.6666 53.3333H62.6666V56H54.6666V53.3333Z" fill="white"/>
<path d="M54.6666 57.3333H58.6666L51.9999 78.6667H47.9999L54.6666 57.3333Z" fill="white"/>
<path d="M62.6666 57.3334L58.6666 57.3333L63.9999 78.6667H67.9999L62.6666 57.3334Z" fill="white"/>
</svg>
